HIERARCHY
ROOT Hips
{
	OFFSET 48.141399 -13.747215 92.443001
	CHANNELS 6 Xposition Yposition Zposition Xrotation Yrotation Zrotation
	JOINT spine
	{
		OFFSET 0.000000 -0.429886 7.475601
		CHANNELS 3 Xrotation Yrotation Zrotation
		JOINT spine1
		{
			OFFSET 0.000000 -0.000002 9.923012
			CHANNELS 3 Xrotation Yrotation Zrotation
			JOINT spine2
			{
				OFFSET 0.000000 -0.000001 9.508041
				CHANNELS 3 Xrotation Yrotation Zrotation
				JOINT Neck
				{
					OFFSET 0.000000 -1.163845 24.411102
					CHANNELS 3 Xrotation Yrotation Zrotation
					JOINT Head
					{
						OFFSET 0.000000 -0.000001 7.375229
						CHANNELS 3 Xrotation Yrotation Zrotation
						End Site
						{
							OFFSET 0.000000 5.887407 17.852203
						}
					}
				}
				JOINT RightShoulder
				{
					OFFSET -4.003559 0.557467 10.267899
					CHANNELS 3 Xrotation Yrotation Zrotation
					JOINT RightArm
					{
						OFFSET 0.000000 -0.000002 13.467300
						CHANNELS 3 Xrotation Yrotation Zrotation
						JOINT RightArmRoll
						{
							OFFSET 0.000000 -0.000002 6.798584
							CHANNELS 3 Xrotation Yrotation Zrotation
							JOINT RightForeArm
							{
								OFFSET 0.000000 -0.000003 19.801804
								CHANNELS 3 Xrotation Yrotation Zrotation
								JOINT RightForeArmRoll
								{
									OFFSET 0.000000 -0.000001 7.629044
									CHANNELS 3 Xrotation Yrotation Zrotation
									JOINT RightHand
									{
										OFFSET 0.000000 -0.000003 15.309799
										CHANNELS 3 Xrotation Yrotation Zrotation
										End Site
										{
											OFFSET 0.000000 0.000000 0.100006
										}
									}
								}
							}
						}
					}
				}
				JOINT LeftShoulder
				{
					OFFSET 4.003559 0.557467 10.267899
					CHANNELS 3 Xrotation Yrotation Zrotation
					JOINT LeftArm
					{
						OFFSET 0.000000 -0.000002 13.467300
						CHANNELS 3 Xrotation Yrotation Zrotation
						JOINT LeftArmRoll
						{
							OFFSET 0.000000 -0.000002 6.798584
							CHANNELS 3 Xrotation Yrotation Zrotation
							JOINT LeftForeArm
							{
								OFFSET 0.000000 -0.000003 19.801804
								CHANNELS 3 Xrotation Yrotation Zrotation
								JOINT LeftForeArmRoll
								{
									OFFSET 0.000000 -0.000001 7.629044
									CHANNELS 3 Xrotation Yrotation Zrotation
									JOINT LeftHand
									{
										OFFSET 0.000000 -0.000003 15.309799
										CHANNELS 3 Xrotation Yrotation Zrotation
										End Site
										{
											OFFSET 0.000000 0.000000 0.100006
										}
									}
								}
							}
						}
					}
				}
			}
		}
	}
	JOINT RightUpLeg
	{
		OFFSET -6.626091 1.019270 -1.215050
		CHANNELS 3 Xrotation Yrotation Zrotation
		JOINT RightUpLegRoll
		{
			OFFSET 0.000000 -0.000003 17.951698
			CHANNELS 3 Xrotation Yrotation Zrotation
			JOINT RightLeg
			{
				OFFSET 0.000000 0.000004 -22.230400
				CHANNELS 3 Xrotation Yrotation Zrotation
				JOINT RightLegRoll
				{
					OFFSET 0.000000 -0.000004 22.303200
					CHANNELS 3 Xrotation Yrotation Zrotation
					JOINT RightFoot
					{
						OFFSET 0.000000 -0.000003 18.563599
						CHANNELS 3 Xrotation Yrotation Zrotation
						JOINT RightToeBase
						{
							OFFSET 0.000000 -0.000002 15.518303
							CHANNELS 3 Xrotation Yrotation Zrotation
							End Site
							{
								OFFSET 0.006577 0.866261 7.515396
							}
						}
					}
				}
			}
		}
	}
	JOINT LeftUpLeg
	{
		OFFSET 6.626091 1.019270 -1.215050
		CHANNELS 3 Xrotation Yrotation Zrotation
		JOINT LeftUpLegRoll
		{
			OFFSET 0.000000 -0.000003 17.951797
			CHANNELS 3 Xrotation Yrotation Zrotation
			JOINT LeftLeg
			{
				OFFSET 0.000000 -0.000003 22.230301
				CHANNELS 3 Xrotation Yrotation Zrotation
				JOINT LeftLegRoll
				{
					OFFSET 0.000000 -0.000004 22.509293
					CHANNELS 3 Xrotation Yrotation Zrotation
					JOINT LeftFoot
					{
						OFFSET 0.000000 -0.000003 18.357498
						CHANNELS 3 Xrotation Yrotation Zrotation
						JOINT LeftToeBase
						{
							OFFSET 0.000000 -0.000003 15.518295
							CHANNELS 3 Xrotation Yrotation Zrotation
							End Site
							{
								OFFSET -0.029476 0.866262 7.515396
							}
						}
					}
				}
			}
		}
	}
}
MOTION
Frames: 6
Frame Time: 0.041667
47.475597 -16.018814 92.791199 -6.894328 2.211380 -0.997124 -1.314661 -0.337055 0.041321 1.373695 -0.673668 0.064411 3.018809 -0.672849 0.072477 18.002994 3.473012 -5.582103 -3.211575 -6.296235 -5.130795 -5.891945 -76.371665 -8.346038 81.560020 -79.165690 103.474197 -0.000000 0.000001 -0.000008 3.252780 -7.016921 -0.826323 0.000002 -0.000009 -3.000002 -5.000236 -7.999122 0.000121 0.785013 73.254414 0.839140 -60.653541 96.438993 30.265320 -0.000003 0.000003 0.000014 2.966708 -1.260210 0.835043 -0.000001 0.000007 3.004372 -5.000166 8.000099 0.000009 2.422837 173.653625 -3.322294 -179.999991 0.000005 -1.201999 168.061190 -2.954795 -0.776466 -0.000005 -0.000001 0.203996 72.169623 6.759072 2.256076 25.456959 -7.355613 0.000010 -1.846713 170.248967 -5.441740 -0.000005 -0.000004 -1.266360 -23.982408 4.886337 1.717397 0.000002 -0.000001 -0.525768 70.844600 -6.684497 -2.573467 31.088938 7.133519 -2.719971 
47.473595 -16.006012 92.807701 -6.884289 2.215120 -1.046486 -1.311450 -0.338627 0.041118 1.380126 -0.675914 0.065047 3.025241 -0.675086 0.073140 17.879676 3.454101 -5.561856 -3.172552 -6.239119 -5.116895 -5.925947 -76.372874 -8.382609 81.642405 -79.027058 103.457497 -0.000003 0.000003 -0.000007 3.516546 -7.054487 -0.815007 0.000000 -0.000011 -3.000003 -5.000237 -7.999122 0.000123 0.754087 73.199930 0.866642 -60.380880 96.439375 29.980443 -0.000004 0.000003 0.000014 3.140859 -1.267474 0.838420 -0.000002 0.000007 3.004368 -5.000164 8.000098 0.000007 2.406262 173.650552 -3.335417 -179.999991 0.000004 -1.201999 168.063881 -2.938183 -0.774823 -0.000004 -0.000001 0.204852 72.173059 6.759107 2.255074 25.456960 -7.355615 0.000010 -1.851734 170.255989 -5.441803 -0.000004 -0.000004 -1.266561 -23.976023 4.892818 1.718926 0.000004 -0.000001 -0.525644 70.835673 -6.684472 -2.573100 31.111071 7.133473 -2.710721 
47.479897 -15.975913 92.802597 -6.873933 2.219348 -1.096183 -1.308266 -0.340219 0.040818 1.386537 -0.678154 0.065543 3.031652 -0.677321 0.073663 17.755739 3.434032 -5.541029 -3.133078 -6.180270 -5.102510 -5.960204 -76.373966 -8.419471 81.732619 -78.887585 103.448973 -0.000002 0.000001 -0.000009 3.773023 -7.092564 -0.803470 0.000001 -0.000010 -2.999999 -5.000232 -7.999122 0.000121 0.723485 73.144134 0.893662 -60.090379 96.439040 29.679347 -0.000004 0.000002 0.000015 3.308088 -1.273703 0.841889 -0.000000 0.000008 3.004374 -5.000166 8.000100 0.000006 2.389406 173.645484 -3.349949 -179.999991 0.000005 -1.201999 168.065561 -2.920598 -0.774013 -0.000004 -0.000000 0.205785 72.176815 6.759096 2.254045 25.456960 -7.355615 0.000010 -1.856834 170.263010 -5.442313 -0.000004 -0.000004 -1.266790 -23.969243 4.899397 1.720448 0.000004 -0.000001 -0.525535 70.826541 -6.684480 -2.572749 31.133003 7.133445 -2.701559 
47.483196 -15.964911 92.795303 -6.863336 2.223915 -1.146130 -1.305072 -0.341826 0.040448 1.392940 -0.680390 0.065941 3.038054 -0.679552 0.074087 17.631297 3.413134 -5.519811 -3.093300 -6.120198 -5.087799 -5.994763 -76.375250 -8.456647 81.828924 -78.747307 103.446883 -0.000001 0.000001 -0.000009 4.024420 -7.130997 -0.791668 0.000001 -0.000011 -3.000003 -5.000236 -7.999123 0.000119 0.693185 73.087634 0.920278 -59.788245 96.438221 29.367703 -0.000004 0.000002 0.000014 3.470486 -1.279210 0.845429 -0.000000 0.000007 3.004371 -5.000166 8.000098 0.000009 2.372371 173.639405 -3.365451 -179.999991 0.000004 -1.202996 168.066667 -2.902017 -0.773038 -0.000005 -0.000001 0.206771 72.180872 6.759076 2.252896 25.456957 -7.355615 0.000010 -1.862002 170.269034 -5.443121 -0.000003 -0.000004 -1.267030 -23.962363 4.906037 1.721981 0.000003 -0.000001 -0.525435 70.817307 -6.684480 -2.572302 31.154836 7.133420 -2.692454 
47.493195 -15.948211 92.798500 -6.852609 2.228671 -1.196211 -1.301900 -0.343439 0.040040 1.399329 -0.682624 0.066283 3.044447 -0.681783 0.074456 17.506654 3.391726 -5.498453 -3.053341 -6.059420 -5.072952 -6.029415 -76.376418 -8.493934 81.928112 -78.606646 103.447846 -0.000001 0.000000 -0.000009 4.272926 -7.169647 -0.779591 0.000000 -0.000011 -3.000002 -5.000236 -7.999123 0.000122 0.663137 73.030630 0.946571 -59.478339 96.437299 29.048993 -0.000004 0.000004 0.000012 3.630124 -1.284308 0.849021 -0.000001 0.000006 3.004371 -5.000167 8.000099 0.000010 2.355215 173.633340 -3.381466 -179.999991 0.000005 -1.202996 168.067378 -2.882456 -0.771877 -0.000004 -0.000000 0.207787 72.184950 6.759086 2.251851 25.456957 -7.355614 0.000010 -1.867192 170.275072 -5.444117 -0.000004 -0.000005 -1.267280 -23.955289 4.912710 1.723504 0.000003 -0.000001 -0.525344 70.807963 -6.684478 -2.571964 31.176562 7.133409 -2.683382 
47.500298 -15.929613 92.765289 -6.841852 2.233457 -1.246332 -1.298723 -0.345054 0.039622 1.405711 -0.684859 0.066611 3.050837 -0.684012 0.074811 17.381815 3.370130 -5.477122 -3.013364 -5.998454 -5.058139 -6.064157 -76.377689 -8.531311 82.028031 -78.465842 103.449581 -0.000001 0.000003 -0.000006 4.520735 -7.208372 -0.767195 -0.000002 -0.000009 -3.000001 -5.000235 -7.999122 0.000120 0.633297 72.973523 0.972627 -59.167525 96.436397 28.729377 -0.000004 0.000002 0.000012 3.789059 -1.289287 0.852645 0.000000 0.000006 3.004369 -5.000166 8.000101 0.000009 2.338036 173.627275 -3.397614 -179.999991 0.000005 -1.202996 168.067979 -2.862879 -0.770706 -0.000004 -0.000001 0.208811 72.189144 6.759091 2.250598 25.456957 -7.355615 0.000010 -1.872405 170.281097 -5.445149 -0.000004 -0.000004 -1.267540 -23.948209 4.919386 1.725025 0.000003 -0.000001 -0.525254 70.798620 -6.684475 -2.571624 31.198289 7.133406 -2.674325 
